<?xml version="1.0" standalone="no"?>
<!DOCTYPE svg PUBLIC "-//W3C//DTD SVG 20010904//EN"
 "http://www.w3.org/TR/2001/REC-SVG-20010904/DTD/svg10.dtd">
<svg version="1.0" xmlns="http://www.w3.org/2000/svg"
 width="48.000000pt" height="48.000000pt" viewBox="0 0 48.000000 48.000000"
 preserveAspectRatio="xMidYMid meet">

<g transform="translate(0.000000,48.000000) scale(0.100000,-0.100000)"
fill="#000000" stroke="none">
<path d="M272 418 c-5 -7 -13 -34 -17 -60 -6 -42 -10 -47 -39 -52 -64 -12
-100 -80 -72 -134 15 -30 22 -34 79 -46 24 -6 28 -11 25 -34 -4 -34 -37 -43
-45 -13 -5 21 -33 30 -33 11 0 -15 38 -50 55 -50 23 0 55 37 55 65 0 18 5 25
20 25 11 0 27 12 37 26 15 24 15 29 2 53 -8 14 -25 30 -37 36 -31 14 -28 48 8
83 35 36 37 55 10 82 -23 23 -34 25 -48 8z m38 -42 c0 -18 -7 -39 -15 -46 -13
-11 -15 -6 -15 34 0 34 4 46 15 46 10 0 15 -10 15 -34z m-60 -106 c0 -11 -6
-20 -13 -20 -8 0 -19 -11 -25 -25 -15 -33 -15 -35 3 -35 8 0 15 9 15 19 0 11
5 23 10 26 6 4 10 -13 10 -44 0 -30 -5 -51 -11 -51 -15 0 -53 21 -61 34 -16
23 -8 67 17 91 29 30 55 32 55 5z m58 -77 c2 -18 -3 -35 -12 -43 -14 -11 -16
-7 -16 35 0 53 23 60 28 8z"/>
</g>
</svg>
