<?xml version="1.0" encoding="UTF-8"?>
<svg xmlns="http://www.w3.org/2000/svg" xmlns:xlink="http://www.w3.org/1999/xlink" width="2000" height="2000" viewBox="0 0 2000 2000">
<path fill-rule="evenodd" fill="rgb(95.701599%, 96.875%, 98.046875%)" fill-opacity="1" d="M 0 0.078125 L 1999.921875 0.078125 L 1999.921875 2000 L 0 2000 L 0 0.078125 "/>
<path fill-rule="evenodd" fill="rgb(95.701599%, 96.875%, 98.046875%)" fill-opacity="1" d="M 1908.238281 1915.15625 L 1889.179688 1915.15625 C 1888.300781 1915.15625 1887.589844 1915.871094 1887.589844 1916.746094 L 1887.589844 1935.800781 C 1887.589844 1936.679688 1888.300781 1937.394531 1889.179688 1937.394531 L 1908.238281 1937.394531 C 1909.109375 1937.394531 1909.828125 1936.679688 1909.828125 1935.800781 L 1909.828125 1916.746094 C 1909.828125 1915.871094 1909.109375 1915.15625 1908.238281 1915.15625 "/>
<path fill-rule="evenodd" fill="rgb(95.701599%, 96.875%, 98.046875%)" fill-opacity="1" d="M 1865.28125 1916.171875 L 1847.089844 1916.171875 C 1846.261719 1916.171875 1845.578125 1916.855469 1845.578125 1917.691406 L 1845.578125 1935.875 C 1845.578125 1936.710938 1846.261719 1937.394531 1847.089844 1937.394531 L 1865.28125 1937.394531 C 1866.109375 1937.394531 1866.800781 1936.710938 1866.800781 1935.875 L 1866.800781 1917.691406 C 1866.800781 1916.855469 1866.109375 1916.171875 1865.28125 1916.171875 "/>
<path fill-rule="evenodd" fill="rgb(95.701599%, 96.875%, 98.046875%)" fill-opacity="1" d="M 1822.320312 1917.1875 L 1805.011719 1917.1875 C 1804.210938 1917.1875 1803.558594 1917.839844 1803.558594 1918.636719 L 1803.558594 1935.949219 C 1803.558594 1936.742188 1804.210938 1937.394531 1805.011719 1937.394531 L 1822.320312 1937.394531 C 1823.121094 1937.394531 1823.769531 1936.742188 1823.769531 1935.949219 L 1823.769531 1918.636719 C 1823.769531 1917.839844 1823.121094 1917.1875 1822.320312 1917.1875 "/>
<path fill-rule="evenodd" fill="rgb(95.701599%, 96.875%, 98.046875%)" fill-opacity="1" d="M 1779.371094 1918.207031 L 1762.929688 1918.207031 C 1762.171875 1918.207031 1761.550781 1918.824219 1761.550781 1919.582031 L 1761.550781 1936.019531 C 1761.550781 1936.777344 1762.171875 1937.394531 1762.929688 1937.394531 L 1779.371094 1937.394531 C 1780.121094 1937.394531 1780.738281 1936.777344 1780.738281 1936.019531 L 1780.738281 1919.582031 C 1780.738281 1918.824219 1780.121094 1918.207031 1779.371094 1918.207031 "/>
<path fill-rule="evenodd" fill="rgb(95.701599%, 96.875%, 98.046875%)" fill-opacity="1" d="M 1736.410156 1919.222656 L 1720.839844 1919.222656 C 1720.128906 1919.222656 1719.539062 1919.808594 1719.539062 1920.523438 L 1719.539062 1936.09375 C 1719.539062 1936.808594 1720.128906 1937.394531 1720.839844 1937.394531 L 1736.410156 1937.394531 C 1737.128906 1937.394531 1737.710938 1936.808594 1737.710938 1936.09375 L 1737.710938 1920.523438 C 1737.710938 1919.808594 1737.128906 1919.222656 1736.410156 1919.222656 "/>
<path fill-rule="evenodd" fill="rgb(95.701599%, 96.875%, 98.046875%)" fill-opacity="1" d="M 1693.460938 1920.238281 L 1678.761719 1920.238281 C 1678.078125 1920.238281 1677.53125 1920.792969 1677.53125 1921.46875 L 1677.53125 1936.167969 C 1677.53125 1936.84375 1678.078125 1937.394531 1678.761719 1937.394531 L 1693.460938 1937.394531 C 1694.128906 1937.394531 1694.679688 1936.84375 1694.679688 1936.167969 L 1694.679688 1921.46875 C 1694.679688 1920.792969 1694.128906 1920.238281 1693.460938 1920.238281 "/>
<path fill-rule="evenodd" fill="rgb(95.701599%, 96.875%, 98.046875%)" fill-opacity="1" d="M 1650.5 1921.257812 L 1636.671875 1921.257812 C 1636.039062 1921.257812 1635.519531 1921.777344 1635.519531 1922.414062 L 1635.519531 1936.238281 C 1635.519531 1936.875 1636.039062 1937.394531 1636.671875 1937.394531 L 1650.5 1937.394531 C 1651.140625 1937.394531 1651.648438 1936.875 1651.648438 1936.238281 L 1651.648438 1922.414062 C 1651.648438 1921.777344 1651.140625 1921.257812 1650.5 1921.257812 "/>
<path fill-rule="evenodd" fill="rgb(95.701599%, 96.875%, 98.046875%)" fill-opacity="1" d="M 1607.539062 1922.273438 L 1594.589844 1922.273438 C 1593.988281 1922.273438 1593.511719 1922.761719 1593.511719 1923.355469 L 1593.511719 1936.3125 C 1593.511719 1936.90625 1593.988281 1937.394531 1594.589844 1937.394531 L 1607.539062 1937.394531 C 1608.140625 1937.394531 1608.628906 1936.90625 1608.628906 1936.3125 L 1608.628906 1923.355469 C 1608.628906 1922.761719 1608.140625 1922.273438 1607.539062 1922.273438 "/>
<path fill-rule="evenodd" fill="rgb(95.701599%, 96.875%, 98.046875%)" fill-opacity="1" d="M 1564.589844 1923.292969 L 1552.5 1923.292969 C 1551.949219 1923.292969 1551.488281 1923.746094 1551.488281 1924.300781 L 1551.488281 1936.386719 C 1551.488281 1936.941406 1551.949219 1937.394531 1552.5 1937.394531 L 1564.589844 1937.394531 C 1565.140625 1937.394531 1565.601562 1936.941406 1565.601562 1936.386719 L 1565.601562 1924.300781 C 1565.601562 1923.746094 1565.140625 1923.292969 1564.589844 1923.292969 "/>
<path fill-rule="evenodd" fill="rgb(78.514099%, 80.076599%, 90.234375%)" fill-opacity="1" d="M 1183.238281 1020.9375 C 1223.371094 1029.503906 1261.441406 1044.699219 1294.359375 1065.523438 C 1405.871094 1136.046875 1432.609375 1247.355469 1398.558594 1358.160156 C 1376.320312 1430.535156 1310.289062 1484.097656 1230.25 1514.257812 C 1219.210938 1518.417969 1207.941406 1522.121094 1196.488281 1525.378906 C 1122.378906 1674.621094 954.03125 1688.109375 782.394531 1657.089844 C 751.167969 1651.449219 731.414062 1625.410156 738.550781 1599.183594 C 745.691406 1572.941406 777.164062 1556.011719 808.433594 1561.660156 C 887.289062 1575.910156 987.429688 1596.734375 1048.140625 1543.082031 C 1047.898438 1543.074219 1047.648438 1543.0625 1047.398438 1543.054688 C 406.714844 1496.058594 636.996094 1012.542969 959.769531 776.699219 C 936.136719 730.898438 909.175781 686.558594 887.453125 639.871094 C 840.636719 539.210938 818.957031 432.371094 910.003906 341.800781 C 943.585938 308.390625 989.933594 288.96875 1041.550781 286.460938 C 1089.269531 284.140625 1136.648438 296.960938 1174.601562 320.53125 C 1358.46875 434.738281 1209.421875 679.921875 1095.289062 794.988281 C 1129.730469 868.660156 1159.53125 944.261719 1183.238281 1020.9375 Z M 1043.050781 692.269531 C 1095.441406 629.320312 1202.261719 460.011719 1104.140625 399.070312 C 1087.738281 388.878906 1067.140625 382.800781 1046.441406 383.808594 C 1027.53125 384.730469 1011.089844 391.859375 998.84375 404.039062 C 919.355469 483.121094 994.550781 606.128906 1043.050781 692.269531 Z M 1088.699219 1111.414062 C 983.566406 1121.007812 976.992188 1199.234375 1002.449219 1270.035156 C 1011.648438 1295.632812 993.972656 1323.1875 963.246094 1331.226562 C 932.53125 1339.257812 899.878906 1324.878906 890.683594 1299.300781 C 845.09375 1172.480469 889.863281 1041.277344 1060.660156 1016.355469 C 1044.890625 968.941406 1026.730469 922.03125 1006.589844 875.828125 C 780.523438 1044.730469 589.289062 1417.703125 1054.109375 1445.636719 C 1071.378906 1446.265625 1088.769531 1445.628906 1105.96875 1443.71875 C 1123.03125 1382.839844 1122.03125 1314.34375 1115.28125 1253.3125 C 1110.011719 1205.652344 1100.671875 1158.175781 1088.699219 1111.414062 Z M 1214.160156 1138.203125 C 1221.628906 1172.902344 1227.558594 1207.886719 1231.449219 1242.996094 C 1237.171875 1294.730469 1238.71875 1348.507812 1232.121094 1400.90625 C 1257.378906 1383.9375 1277.390625 1361.910156 1285.640625 1335.082031 C 1307.460938 1264.066406 1296.078125 1189.671875 1223.300781 1143.640625 C 1220.320312 1141.753906 1217.269531 1139.941406 1214.160156 1138.203125 "/>
<path fill="none" stroke-width="397.28" stroke-linecap="round" stroke-linejoin="round" stroke="rgb(47.459412%, 50.976562%, 72.851562%)" stroke-opacity="1" stroke-miterlimit="2.61313" d="M 12083.613269 9271.48307 C 12495.592361 9166.022299 12883.605 8992.420549 13215.991778 8762.463249 C 14341.919794 7983.540106 14573.410399 6815.018437 14175.91544 5676.614173 C 13916.283539 4933.008776 13210.898245 4402.874824 12369.995671 4121.874185 C 12254.017422 4083.113746 12135.798298 4049.201922 12015.901313 4020.035154 C 11188.10235 2498.193991 9439.622953 2426.609203 7675.24874 2819.190674 C 7354.288562 2890.590416 7160.350782 3169.448621 7244.892048 3439.325966 C 7329.476928 3709.282966 7662.194421 3872.546443 7983.594699 3801.007298 C 8794.245642 3620.636721 9822.554787 3363.254039 10472.891678 3896.41179 C 10470.389047 3896.632474 10467.803945 3896.815723 10465.218844 3896.998971 C 3851.248364 4647.185271 6431.763949 9581.650006 9869.219038 11902.58362 C 9643.150824 12388.581098 9382.031222 12860.702514 9176.141233 13355.181289 C 8732.286593 14420.998141 8551.27214 15540.985399 9530.637809 16445.784859 C 9891.884619 16779.498475 10379.611958 16962.489067 10915.112468 16967.587724 C 11410.012558 16972.292758 11895.403092 16819.59079 12278.681039 16558.984728 C 14135.886809 15296.206482 12493.207556 12807.302687 11264.918508 11657.087341 C 11591.494138 10876.994462 11869.317254 10078.601726 12083.613269 9271.48307 Z M 10765.813592 12746.685999 C 11333.707896 13380.007648 12508.397748 15097.184205 11517.293118 15770.99046 C 11351.614332 15883.58902 11140.793089 15955.205206 10926.08427 15953.210199 C 10730.015168 15951.416411 10556.89692 15883.904767 10425.082369 15762.198602 C 9570.056541 14972.320446 10298.595414 13662.314383 10765.813592 12746.685999 Z M 11068.090275 8369.084995 C 9975.783587 8312.205623 9875.948114 7501.395356 10110.707877 6754.662558 C 10195.593248 6484.740212 10001.400578 6205.350716 9680.021773 6134.323957 C 9358.723852 6063.294012 9026.55326 6226.191647 8941.742426 6495.948311 C 8521.216819 7833.444507 9038.050236 9179.610048 10816.409329 9369.106334 C 10672.407301 9868.713852 10503.484318 10363.892183 10313.695632 10852.691316 C 7904.641453 9188.309436 5773.281604 5387.527781 10574.185516 4907.382234 C 10752.80412 4893.792604 10933.111185 4893.359506 11111.91181 4906.208847 C 11313.288933 5532.369989 11330.795958 6245.074952 11285.701791 6882.53597 C 11250.505671 7380.378145 11173.010576 7877.893635 11068.090275 8369.084995 Z M 12356.12036 8039.33896 C 12419.391621 7675.428458 12466.612993 7309.180355 12492.509624 6942.429982 C 12530.784182 6402.071288 12524.996664 5842.170047 12435.286317 5299.938385 C 12703.796522 5466.098363 12919.887885 5687.053641 13016.197813 5962.692214 C 13270.908272 6692.292015 13183.39927 7470.612633 12448.584444 7979.018953 C 12418.495277 7999.896933 12387.605984 8019.992717 12356.12036 8039.33896 Z M 12356.12036 8039.33896 " transform="matrix(0.096441, -0.00378358, -0.00376662, -0.0960088, 0, 2000)"/>
</svg>
