<svg width="150" height="151" viewBox="0 0 150 151" fill="none" xmlns="http://www.w3.org/2000/svg">
<path d="M81.2495 69.6392V47.7642L94.9995 33.9517C99.9995 29.0142 100.937 21.1392 97.437 15.0142C94.6245 10.0767 89.4995 7.13919 84.062 7.13919C82.7495 7.13919 81.2495 7.32669 80.062 7.70169C73.312 9.51419 68.7495 15.7642 68.7495 22.7642V43.0142L49.1245 62.8267C38.7495 73.3892 35.6245 89.2017 41.312 103.014C46.1245 114.889 56.6245 123.077 68.7495 125.202V129.014C68.7495 130.639 67.312 132.139 65.6245 132.139H56.2495V144.639H65.6245C74.062 144.639 81.2495 137.702 81.2495 129.014V125.889C93.937 125.889 107.249 113.889 107.249 96.2017C107.249 81.8267 95.2495 69.6392 81.2495 69.6392ZM81.2495 22.7642C81.2495 21.3267 81.937 20.2017 83.2495 19.8267C84.6245 19.4517 86.062 20.0142 86.7495 21.2642C87.4995 22.5142 87.2495 24.0767 86.2495 25.0767L81.2495 30.4517V22.7642ZM68.7495 72.7642C62.687 76.7642 58.1245 83.6392 56.4995 90.0142L68.7495 93.2642V112.327C61.687 110.452 55.6245 105.327 52.687 98.2017C48.9995 89.0767 50.9995 78.7017 57.8745 71.7017L68.7495 60.2642V72.7642ZM81.2495 113.389V81.7642C88.562 81.7642 94.8745 88.6392 94.8745 96.2017C94.8745 107.139 86.937 113.389 81.2495 113.389Z" fill="#13C041"/>
</svg>
